<svg xmlns="http://www.w3.org/2000/svg" width="16" height="16" fill="#444" viewBox="0 0 16 16"><path d="M10.93,11.9l-1.34,4h.8l.31-1H12l.31,1h.84l-1.33-4Zm-.06,2.38.49-1.61h0l.49,1.61Z"/><polygon points="9.98 11.95 6.92 11.95 6.92 12.61 8.05 12.61 8.05 15.94 8.85 15.94 8.85 12.61 9.98 12.61 9.98 11.95"/><polygon points="5.46 15.96 6.25 15.96 6.25 15.96 6.25 11.96 5.46 11.96 5.46 15.96"/><path d="M4,12.2A1.94,1.94,0,0,0,3,12H1.5v4H3a1.9,1.9,0,0,0,1-.24,1.43,1.43,0,0,0,.6-.68A2.76,2.76,0,0,0,4.75,14a2.63,2.63,0,0,0-.19-1.07A1.41,1.41,0,0,0,4,12.2Zm-.1,2.36a1,1,0,0,1-.2.42.75.75,0,0,1-.33.25,1.21,1.21,0,0,1-.48.08H2.29v-2.7h.56a1.1,1.1,0,0,1,.61.15.93.93,0,0,1,.36.45,2.13,2.13,0,0,1,.12.76A2.38,2.38,0,0,1,3.87,14.56Z"/><path d="M10,0H4.5a2,2,0,0,0-2,2v9h1V2a1,1,0,0,1,1-1H10V3a1.5,1.5,0,0,0,1.5,1.5h2V11h1V4.54Z"/></svg>