<svg xmlns="http://www.w3.org/2000/svg" width="16" height="16" fill="#444" viewBox="0 0 16 16"><path d="M11,11.92l-1.34,4h.8l.31-1h1.3l.31,1h.84l-1.33-4Zm-.06,2.38.49-1.61.49,1.61Z"/><polygon points="9.98 11.95 6.92 11.95 6.92 12.61 8.05 12.61 8.05 15.94 8.85 15.94 8.85 12.61 9.98 12.61 9.98 11.95"/><rect x="5.46" y="11.96" width="0.79" height="4"/><path d="M4,12.2A2,2,0,0,0,3,12H1.5v4H3a1.92,1.92,0,0,0,1-.24,1.42,1.42,0,0,0,.6-.68A2.83,2.83,0,0,0,4.75,14a2.6,2.6,0,0,0-.19-1.07A1.41,1.41,0,0,0,4,12.2Zm-.1,2.36a1,1,0,0,1-.2.42.75.75,0,0,1-.33.25,1.13,1.13,0,0,1-.48.08h-.6v-2.7h.56a1.09,1.09,0,0,1,.61.15,1,1,0,0,1,.36.45,2,2,0,0,1,.12.76,2.32,2.32,0,0,1-.07.59Z"/><path d="M8,9.51a.82.82,0,0,0,.35-.9L8.06,7.27V6.48a.84.84,0,0,0-.84-.84H6.38a.84.84,0,0,0-.85.84v.79L5.2,8.61a.82.82,0,0,0,.35.9l.78.52a.83.83,0,0,0,.93,0Zm-2-.7.34-1.34a.75.75,0,0,0,0-.2V6.48h.84v.79a.71.71,0,0,0,0,.2l.34,1.34-.78.53Z"/><path d="M10,0H4.5a2,2,0,0,0-2,2v9h1V2a1,1,0,0,1,1-1H6.65v.72H5.81v.85h.84v.84H5.81v.84h.84v.84H7.91V4.25H7.07V3.41h.84V2.57H7.07V1.72h.84V1H10V3a1.5,1.5,0,0,0,1.5,1.5h2V11h1V4.54Z"/></svg>