<?xml version="1.0" encoding="iso-8859-1"?>
<!-- Generator: Adobe Illustrator 19.0.0, SVG Export Plug-In . SVG Version: 6.00 Build 0)  -->
<svg version="1.1" id="Layer_1" xmlns="http://www.w3.org/2000/svg" xmlns:xlink="http://www.w3.org/1999/xlink" x="0px" y="0px"
	 viewBox="0 0 329.992 329.992" style="enable-background:new 0 0 329.992 329.992;" xml:space="preserve">
<g>
	<g>
		<path d="M304.996,0h-280c-8.284,0-15,6.716-15,15v60c0,4.227,1.783,8.257,4.91,11.1l105.09,95.528v133.364
			c0,5.199,2.691,10.027,7.113,12.76c2.41,1.488,5.144,2.24,7.887,2.24c2.293,0,4.592-0.525,6.708-1.584l60-30
			c5.082-2.541,8.292-7.734,8.292-13.416V181.628L315.086,86.1c3.127-2.843,4.91-6.873,4.91-11.1V15
			C319.996,6.716,313.28,0,304.996,0z M184.906,163.893c-3.127,2.843-4.91,6.873-4.91,11.1v100.73l-30,15v-115.73
			c0-4.227-1.783-8.257-4.91-11.1L63.797,90h202.398L184.906,163.893z M289.996,60h-250V30h250V60z"/>
	</g>
</g>
<g>
</g>
<g>
</g>
<g>
</g>
<g>
</g>
<g>
</g>
<g>
</g>
<g>
</g>
<g>
</g>
<g>
</g>
<g>
</g>
<g>
</g>
<g>
</g>
<g>
</g>
<g>
</g>
<g>
</g>
</svg>
