<?xml version="1.0" encoding="UTF-8" standalone="no"?>
<!-- Generator: Adobe Illustrator 16.0.0, SVG Export Plug-In . SVG Version: 6.00 Build 0)  -->

<svg
   xmlns:dc="http://purl.org/dc/elements/1.1/"
   xmlns:cc="http://creativecommons.org/ns#"
   xmlns:rdf="http://www.w3.org/1999/02/22-rdf-syntax-ns#"
   xmlns:svg="http://www.w3.org/2000/svg"
   xmlns="http://www.w3.org/2000/svg"
   xmlns:sodipodi="http://sodipodi.sourceforge.net/DTD/sodipodi-0.dtd"
   xmlns:inkscape="http://www.inkscape.org/namespaces/inkscape"
   version="1.1"
   id="Capa_1"
   x="0px"
   y="0px"
   width="533.333px"
   height="533.333px"
   viewBox="0 0 533.333 533.333"
   style="enable-background:new 0 0 533.333 533.333;"
   xml:space="preserve"
   inkscape:version="0.91 r13725"
   sodipodi:docname="plusicon.svg"><metadata
     id="metadata41"><rdf:RDF><cc:Work
         rdf:about=""><dc:format>image/svg+xml</dc:format><dc:type
           rdf:resource="http://purl.org/dc/dcmitype/StillImage" /><dc:title></dc:title></cc:Work></rdf:RDF></metadata><defs
     id="defs39" /><sodipodi:namedview
     pagecolor="#ffffff"
     bordercolor="#666666"
     borderopacity="1"
     objecttolerance="10"
     gridtolerance="10"
     guidetolerance="10"
     inkscape:pageopacity="0"
     inkscape:pageshadow="2"
     inkscape:window-width="1865"
     inkscape:window-height="1057"
     id="namedview37"
     showgrid="false"
     inkscape:zoom="0.44250027"
     inkscape:cx="-55.367198"
     inkscape:cy="266.6665"
     inkscape:window-x="55"
     inkscape:window-y="0"
     inkscape:window-maximized="1"
     inkscape:current-layer="Capa_1" /><g
     id="g3"
     style="fill:#868686;fill-opacity:1"><path
       d="M516.667,200H333.333V16.667C333.333,7.462,325.871,0,316.667,0h-100C207.462,0,200,7.462,200,16.667V200H16.667   C7.462,200,0,207.462,0,216.667v100c0,9.204,7.462,16.666,16.667,16.666H200v183.334c0,9.204,7.462,16.666,16.667,16.666h100   c9.204,0,16.667-7.462,16.667-16.666V333.333h183.333c9.204,0,16.667-7.462,16.667-16.666v-100   C533.333,207.462,525.871,200,516.667,200z"
       id="path5"
       style="fill:#868686;fill-opacity:1" /></g><g
     id="g7" /><g
     id="g9" /><g
     id="g11" /><g
     id="g13" /><g
     id="g15" /><g
     id="g17" /><g
     id="g19" /><g
     id="g21" /><g
     id="g23" /><g
     id="g25" /><g
     id="g27" /><g
     id="g29" /><g
     id="g31" /><g
     id="g33" /><g
     id="g35" /></svg>