<?xml version="1.0" encoding="UTF-8" standalone="no"?>
<svg
   xmlns:dc="http://purl.org/dc/elements/1.1/"
   xmlns:cc="http://creativecommons.org/ns#"
   xmlns:rdf="http://www.w3.org/1999/02/22-rdf-syntax-ns#"
   xmlns:svg="http://www.w3.org/2000/svg"
   xmlns="http://www.w3.org/2000/svg"
   xmlns:sodipodi="http://sodipodi.sourceforge.net/DTD/sodipodi-0.dtd"
   xmlns:inkscape="http://www.inkscape.org/namespaces/inkscape"
   id="Livello_1"
   version="1.1"
   viewBox="0 0 47.999999 23"
   xml:space="preserve"
   inkscape:version="0.91 r13725"
   sodipodi:docname="likeonasset.svg"
   width="48"
   height="23"><metadata
     id="metadata3430"><rdf:RDF><cc:Work
         rdf:about=""><dc:format>image/svg+xml</dc:format><dc:type
           rdf:resource="http://purl.org/dc/dcmitype/StillImage" /><dc:title></dc:title></cc:Work></rdf:RDF></metadata><defs
     id="defs3428"><inkscape:perspective
       sodipodi:type="inkscape:persp3d"
       inkscape:vp_x="0 : 0.5 : 1"
       inkscape:vp_y="0 : 10 : 0"
       inkscape:vp_z="0.99999995 : 0.5 : 1"
       inkscape:persp3d-origin="0.49999999 : 0.33333333 : 1"
       id="perspective3474" /></defs><sodipodi:namedview
     pagecolor="#ffffff"
     bordercolor="#666666"
     borderopacity="1"
     objecttolerance="10"
     gridtolerance="10"
     guidetolerance="10"
     inkscape:pageopacity="0"
     inkscape:pageshadow="2"
     inkscape:window-width="1366"
     inkscape:window-height="711"
     id="namedview3426"
     showgrid="false"
     inkscape:snap-text-baseline="true"
     inkscape:zoom="7.4529055"
     inkscape:cx="31.68119"
     inkscape:cy="22.601722"
     inkscape:window-x="0"
     inkscape:window-y="0"
     inkscape:window-maximized="1"
     inkscape:current-layer="Livello_1"
     units="px"
     fit-margin-top="-2.4"
     fit-margin-left="0"
     fit-margin-right="0"
     fit-margin-bottom="0" /><style
     type="text/css"
     id="style3404">
	.st0{fill:none;stroke:#000000;stroke-width:4;stroke-miterlimit:10;}
	.st1{fill:none;stroke:#000000;stroke-width:4;stroke-linecap:round;stroke-linejoin:bevel;stroke-miterlimit:10;}
	.st2{fill:none;stroke:#000000;stroke-width:4;stroke-linecap:round;stroke-miterlimit:10;}
</style><style
     id="style3359"
     type="text/css">
	.st0{fill:none;stroke:#000000;stroke-width:4;stroke-miterlimit:10;}
	.st1{fill:none;stroke:#000000;stroke-width:4;stroke-linecap:round;stroke-linejoin:bevel;stroke-miterlimit:10;}
	.st2{fill:none;stroke:#000000;stroke-width:4;stroke-linecap:round;stroke-miterlimit:10;}
</style><path
     class="st0"
     d="m 25.229757,9.5778753 c 0,-0.3128079 0.146609,-1.0426935 0.439863,-1.0426935 l 5.327027,0 c 0.293218,0 0.586472,0.7298856 0.586472,1.0426935 l 0,11.1046847 c 0,0.312808 -0.244372,0.364942 -0.586472,0.364942 l -5.327027,0 c -0.293254,0 -0.439863,-0.05213 -0.439863,-0.364942 l 0,-11.1046847 z"
     id="path3406"
     inkscape:connector-curvature="0"
     style="fill:none;stroke:#000000;stroke-width:2.01907539;stroke-miterlimit:10" /><path
     class="st1"
     d="m 39.402607,7.4924882 5.864616,0 c 0.733046,0 1.3684,2.0853871 1.221791,2.8152728 0,0 -1.710536,7.403122 -2.150363,8.550085 -0.439863,1.146963 -1.808263,1.146963 -2.150363,1.146963 l -0.830808,0"
     id="path3408"
     inkscape:connector-curvature="0"
     style="fill:none;stroke:#000000;stroke-width:2.01907539;stroke-linecap:round;stroke-linejoin:bevel;stroke-miterlimit:10" /><path
     class="st2"
     d="M 31.876337,10.359895 33.0004,9.8906831 35.346218,5.4071011 c 0,0 -0.09772,-2.3460596 0.146646,-3.0759452 0.244336,-0.7298856 2.394699,-2.03325162 3.665371,0.8862896 1.270672,2.9195412 0.195491,4.2229084 0.195491,4.2229084"
     id="path3410"
     inkscape:connector-curvature="0"
     style="fill:none;stroke:#000000;stroke-width:2.01907539;stroke-linecap:round;stroke-miterlimit:10" /><path
     class="st2"
     d="m 42.334898,20.004809 -6.548816,0 -0.537592,0 c -1.124063,0 -3.372153,-1.407636 -3.372153,-1.407636"
     id="path3412"
     inkscape:connector-curvature="0"
     style="fill:none;stroke:#000000;stroke-width:2.01907539;stroke-linecap:round;stroke-miterlimit:10" /><g
     id="g3414"
     transform="translate(37.073749,-1962.7376)" /><g
     id="g3416"
     transform="translate(37.073749,-1962.7376)" /><g
     id="g3418"
     transform="translate(37.073749,-1962.7376)" /><g
     id="g3420"
     transform="translate(37.073749,-1962.7376)" /><g
     id="g3422"
     transform="translate(37.073749,-1962.7376)" /><g
     id="g3424"
     transform="translate(37.073749,-1962.7376)" /><path
     style="fill:#ffb380"
     d="m 34.43678,18.69383 c -0.25506,-0.09864 -0.76626,-0.34242 -1.136013,-0.541782 l -0.672359,-0.362441 0,-3.288603 0,-3.288603 0.545569,-0.225639 0.545498,-0.225639 1.3006,-2.4943819 1.300565,-2.4943321 0.03285,-1.4451729 c 0.03466,-1.53594 0.08011,-1.6995909 0.501922,-1.8125144 0.552393,-0.1479057 1.110345,0.4445528 1.561689,1.6584042 0.355819,0.9570363 0.413978,1.8677249 0.158523,2.4837479 -0.349826,0.8436426 -0.224734,1.4645676 0.359969,1.7871763 0.221124,0.1219431 0.779148,0.1478024 3.191357,0.1478024 l 2.923409,0 0.138991,0.2866886 c 0.07646,0.1576553 0.180725,0.4855294 0.231809,0.7285297 0.08459,0.4028442 0.0231,0.7293122 -0.696222,3.6951492 -1.124749,4.637639 -1.311575,5.261065 -1.629306,5.436289 -0.211593,0.116782 -0.956985,0.141182 -4.226032,0.13821 -3.594864,-0.0052 -4.012778,-0.02034 -4.432713,-0.182889 z"
     id="path3438"
     inkscape:connector-curvature="0" /><path
     style="fill:#502d16"
     d="m 35.503224,18.794242 c -0.912687,-0.06272 -1.033303,-0.09717 -1.924257,-0.549447 l -0.950559,-0.482559 0,-3.254715 0,-3.254715 0.347768,-0.144153 c 0.746548,-0.30942 0.767992,-0.338615 2.067184,-2.8136032 l 1.272334,-2.4236888 0.06563,-1.4344341 c 0.07556,-1.6505306 0.154444,-1.8796105 0.647016,-1.8796105 0.432101,0 0.834058,0.4480968 1.242332,1.3849571 0.399682,0.9171531 0.499467,1.973297 0.257911,2.7295631 -0.232314,0.7272785 -0.198126,1.167556 0.119965,1.5474611 l 0.270511,0.3230788 3.052472,0.028672 3.052545,0.028672 0.157657,0.3527422 c 0.331016,0.7405209 0.303868,0.9941564 -0.437842,4.0914243 -1.116229,4.660996 -1.383851,5.549841 -1.713063,5.6893 -0.218054,0.09238 -6.349138,0.142381 -7.527606,0.06137 z"
     id="path3440"
     inkscape:connector-curvature="0" /><path
     style="fill:#502d16"
     d="m 34.870397,18.680015 c -0.27152,-0.04223 -0.887055,-0.279546 -1.367858,-0.527498 l -0.874131,-0.450809 0,-3.211756 0,-3.211705 0.326902,-0.115114 c 0.711744,-0.250558 0.838462,-0.427973 2.359536,-3.3033043 l 1.018646,-1.9255413 0.08896,-1.4164475 c 0.04891,-0.7790482 0.117367,-1.4955868 0.152168,-1.5923484 0.199463,-0.5544525 0.870991,-0.3560284 1.319699,0.3899147 0.614884,1.0221519 0.826188,2.0917994 0.620733,3.1423133 -0.194227,0.9929575 -0.17513,1.3358989 0.09816,1.7649155 l 0.235166,0.3692175 3.062184,0 3.062148,0 0.192134,0.4632163 c 0.270185,0.6516831 0.203974,1.1845512 -0.527231,4.2440742 -0.753334,3.15201 -1.12464,4.527688 -1.348434,4.995649 -0.156429,0.327197 -0.214951,0.364369 -0.663478,0.421821 -0.684199,0.08769 -7.151606,0.05714 -7.7553,-0.0365 z"
     id="path3442"
     inkscape:connector-curvature="0" /><path
     style="fill:#ffccaa"
     d="m 34.830649,18.678973 c -0.242423,-0.04328 -0.83579,-0.271987 -1.318615,-0.507741 l -0.87785,-0.428598 -0.0047,-3.226406 -0.0051,-3.22646 0.416361,-0.169593 c 0.235203,-0.09587 0.547808,-0.333611 0.718641,-0.546684 0.166321,-0.207339 0.810809,-1.3332917 1.432083,-2.502099 l 1.129732,-2.1250613 0.09368,-1.4242155 c 0.102242,-1.5539257 0.137692,-1.7260748 0.384376,-1.8668903 0.832036,-0.4750508 2.066751,2.0737604 1.754796,3.622474 -0.23217,1.1525409 -0.222712,1.4958991 0.05278,1.9200147 l 0.256105,0.3941389 3.05287,0 3.052869,0 0.192062,0.4632163 c 0.270185,0.6514219 0.204047,1.1844482 -0.526327,4.2445432 -0.746548,3.127768 -1.123377,4.522891 -1.349374,4.995388 -0.150797,0.315363 -0.22477,0.366872 -0.60687,0.42276 -0.614885,0.08988 -7.319263,0.05678 -7.851546,-0.03858 z"
     id="path3444"
     inkscape:connector-curvature="0" /><path
     style="fill:#803300"
     d="m 34.297643,18.445096 c -0.331486,-0.128251 -0.842686,-0.349355 -1.135976,-0.491317 l -0.533259,-0.258119 0,-3.171978 0,-3.171978 0.313363,-0.139668 c 0.730807,-0.325685 0.942363,-0.622279 2.467408,-3.4586129 l 0.9398,-1.7478678 0.0864,-1.2047809 c 0.139316,-1.9425367 0.19643,-2.1445593 0.606256,-2.1445593 0.720879,0 1.620498,2.0244933 1.486994,3.3461596 -0.185165,1.8321692 -0.186646,1.752143 0.04008,2.1825665 l 0.214336,0.4069113 3.079513,0 3.079512,0 0.149209,0.3977351 c 0.222531,0.5932931 0.182747,1.2764654 -0.166935,2.8668844 -0.383291,1.743019 -1.083773,4.554017 -1.406234,5.642849 -0.383364,1.294503 0.0499,1.183457 -4.606904,1.181006 -3.978663,0 -4.015666,-0.0052 -4.61362,-0.235231 z"
     id="path3446"
     inkscape:connector-curvature="0" /><path
     style="fill:#803300"
     d="m 30.631406,14.774815 c 0,-2.883725 0.01192,-4.049196 0.02635,-2.589894 0.0148,1.459302 0.0148,3.818709 -3.6e-5,5.243132 -0.0148,1.424476 -0.02636,0.230487 -0.02636,-2.653238 z"
     id="path3448"
     inkscape:connector-curvature="0" /><path
     style="fill:#28170b"
     d="m 26.229631,14.774815 0,-5.193708 2.17928,0 2.179316,0 0,5.193708 0,5.193656 -2.179316,0 -2.17928,0 0,-5.193656 z"
     id="path3450"
     inkscape:connector-curvature="0" /><path
     style="fill:#008000"
     d="m 36.430606,18.594983 -1.901117,-0.06094 -0.950522,-0.432665 -0.950559,-0.432719 2.17e-4,-3.128653 2.52e-4,-3.128707 0.503945,-0.280901 c 0.600479,-0.334761 0.954132,-0.847505 2.330402,-3.3794254 l 0.914204,-1.6817598 0.11354,-1.4112853 c 0.127945,-1.5908371 0.164262,-1.7663235 0.392281,-1.8965037 0.402498,-0.2298089 1.067492,0.6009568 1.4084,1.7593889 0.172638,0.5869842 0.187332,0.8076703 0.135418,2.0430546 -0.05382,1.2821477 -0.044,1.4088349 0.130544,1.7064711 l 0.188631,0.3215152 3.095976,0 3.095974,0 0.117656,0.448358 c 0.195347,0.7441705 0.06303,1.8695494 -0.493763,4.2012194 -0.991571,4.151953 -1.269192,5.067438 -1.583061,5.220036 -0.278958,0.135602 -4.071263,0.212918 -6.548418,0.133518 z"
     id="path3452"
     inkscape:connector-curvature="0" /><path
     style="fill:#554400"
     d="m 26.229631,14.774815 0,-5.193708 2.17928,0 2.179316,0 0,5.193708 0,5.193656 -2.179316,0 -2.17928,0 0,-5.193656 z"
     id="path3454"
     inkscape:connector-curvature="0" /><path
     style="fill:#8dd35f"
     d="m 34.993179,18.493738 c -0.392786,-0.03806 -0.901641,-0.192586 -1.460567,-0.443145 l -0.857813,-0.384545 0,-3.140124 0,-3.140123 0.290511,-0.128356 c 0.672502,-0.297167 1.088213,-0.875601 2.574666,-3.5828502 L 36.39667,6.114308 36.53021,4.6248201 c 0.141627,-1.5799928 0.218921,-1.869653 0.499251,-1.869653 0.221448,0 0.700084,0.5058622 0.926334,0.9789326 0.38618,0.8075136 0.481055,1.4174888 0.450947,2.8999909 -0.02527,1.2476356 -0.0083,1.445643 0.144262,1.6857227 l 0.172963,0.2720392 3.091608,0 3.091643,0 0.09657,0.37099 c 0.226069,0.8685118 0.09007,1.8727285 -0.700048,5.1689435 -0.628099,2.620028 -0.911533,3.619398 -1.139045,4.015568 -0.174191,0.30332 -0.183759,0.306344 -1.174064,0.370992 -1.17984,0.077 -6.13177,0.05959 -6.997453,-0.0245 z"
     id="path3456"
     inkscape:connector-curvature="0" /><path
     style="fill:#8dd35f"
     d="m 26.276021,14.774815 0,-5.193708 2.13289,0 2.132926,0 0,5.193708 0,5.193656 -2.132926,0 -2.13289,0 0,-5.193656 z"
     id="path3458"
     inkscape:connector-curvature="0" /><path
     style="fill:#bcd35f"
     d="m 34.575879,18.37534 c -0.204047,-0.05109 -0.715102,-0.237005 -1.135687,-0.412489 l -0.764743,-0.319169 -3.61e-4,-3.130218 -2.89e-4,-3.130218 0.234156,-0.06267 c 0.592429,-0.158594 1.243957,-1.051712 2.718279,-3.7257516 0.615498,-1.1163074 0.85052,-1.6344741 0.852614,-1.8796115 0.0058,-0.6983441 0.267767,-2.6827977 0.371523,-2.8161584 0.23968,-0.3080637 0.875395,0.3420557 1.262081,1.2905414 0.124731,0.3059789 0.173685,0.7994332 0.215851,2.1764143 0.04008,1.3129079 0.09008,1.839155 0.189896,2.0032749 l 0.135309,0.2225632 3.120813,0 3.120741,0 0.09571,0.5792682 c 0.157513,0.9541695 -0.08253,2.4081525 -1.004458,6.0838555 -0.519359,2.070475 -0.774779,2.856667 -0.990162,3.04748 -0.119316,0.105775 -0.950882,0.136071 -4.100036,0.149469 -2.216285,0.0093 -4.113141,-0.02398 -4.321232,-0.07658 z"
     id="path3460"
     inkscape:connector-curvature="0" /><path
     style="fill:#484537"
     d="m 26.276021,14.774815 0,-5.193708 2.13289,0 2.132926,0 0,5.193708 0,5.193656 -2.132926,0 -2.13289,0 0,-5.193656 z"
     id="path3462"
     inkscape:connector-curvature="0" /><path
     style="fill:#241c1c"
     d="m 26.276021,14.774815 0,-5.193708 2.13289,0 2.132926,0 0,5.193708 0,5.193656 -2.132926,0 -2.13289,0 0,-5.193656 z"
     id="path3464"
     inkscape:connector-curvature="0" /><g
     id="g3388"
     transform="matrix(0.48871815,0,0,0.52134668,-9.8782947,-12.330568)"><path
       id="path3361"
       d="m 23.4,42.1 c 0,-0.6 0.3,-2 0.9,-2 l 10.9,0 c 0.6,0 1.2,1.4 1.2,2 l 0,21.3 c 0,0.6 -0.5,0.7 -1.2,0.7 l -10.9,0 c -0.6,0 -0.9,-0.1 -0.9,-0.7 l 0,-21.3 z"
       class="st0"
       inkscape:connector-curvature="0"
       style="fill:none;stroke:#000000;stroke-width:4;stroke-miterlimit:10" /><path
       id="path3363"
       d="m 52.4,38.1 12,0 c 1.5,0 2.8,4 2.5,5.4 0,0 -3.5,14.2 -4.4,16.4 -0.9,2.2 -3.7,2.2 -4.4,2.2 l -1.7,0"
       class="st1"
       inkscape:connector-curvature="0"
       style="fill:none;stroke:#000000;stroke-width:4;stroke-linecap:round;stroke-linejoin:bevel;stroke-miterlimit:10" /><path
       id="path3365"
       d="m 37,43.6 2.3,-0.9 4.8,-8.6 c 0,0 -0.2,-4.5 0.3,-5.9 0.5,-1.4 4.9,-3.9 7.5,1.7 2.6,5.6 0.4,8.1 0.4,8.1"
       class="st2"
       inkscape:connector-curvature="0"
       style="fill:none;stroke:#000000;stroke-width:4;stroke-linecap:round;stroke-miterlimit:10" /><path
       id="path3367"
       d="m 58.4,62.1 -13.4,0 -1.1,0 C 41.6,62.1 37,59.4 37,59.4"
       class="st2"
       inkscape:connector-curvature="0"
       style="fill:none;stroke:#000000;stroke-width:4;stroke-linecap:round;stroke-miterlimit:10" /><g
       id="g3369" /><g
       id="g3371" /><g
       id="g3373" /><g
       id="g3375" /><g
       id="g3377" /><g
       id="g3379" /></g></svg>