<?xml version="1.0" encoding="UTF-8" standalone="no"?>
<svg
   xmlns:dc="http://purl.org/dc/elements/1.1/"
   xmlns:cc="http://creativecommons.org/ns#"
   xmlns:rdf="http://www.w3.org/1999/02/22-rdf-syntax-ns#"
   xmlns:svg="http://www.w3.org/2000/svg"
   xmlns="http://www.w3.org/2000/svg"
   xmlns:sodipodi="http://sodipodi.sourceforge.net/DTD/sodipodi-0.dtd"
   xmlns:inkscape="http://www.inkscape.org/namespaces/inkscape"
   id="Livello_1"
   version="1.1"
   viewBox="0 0 55 26"
   xml:space="preserve"
   inkscape:version="0.91 r13725"
   sodipodi:docname="likeonasset.svg"
   width="55"
   height="26"><metadata
     id="metadata3430"><rdf:RDF><cc:Work
         rdf:about=""><dc:format>image/svg+xml</dc:format><dc:type
           rdf:resource="http://purl.org/dc/dcmitype/StillImage" /><dc:title></dc:title></cc:Work></rdf:RDF></metadata><defs
     id="defs3428"><inkscape:perspective
       sodipodi:type="inkscape:persp3d"
       inkscape:vp_x="0 : 0.50000001 : 1"
       inkscape:vp_y="0 : 10 : 0"
       inkscape:vp_z="0.99999997 : 0.50000001 : 1"
       inkscape:persp3d-origin="0.5 : 0.33333333 : 1"
       id="perspective3474" /></defs><sodipodi:namedview
     pagecolor="#ffffff"
     bordercolor="#666666"
     borderopacity="1"
     objecttolerance="10"
     gridtolerance="10"
     guidetolerance="10"
     inkscape:pageopacity="0"
     inkscape:pageshadow="2"
     inkscape:window-width="1865"
     inkscape:window-height="1057"
     id="namedview3426"
     showgrid="false"
     inkscape:snap-text-baseline="true"
     inkscape:zoom="7.4529055"
     inkscape:cx="45.50042"
     inkscape:cy="-16.355183"
     inkscape:window-x="55"
     inkscape:window-y="0"
     inkscape:window-maximized="1"
     inkscape:current-layer="Livello_1"
     units="px"
     fit-margin-top="-2.4"
     fit-margin-left="0"
     fit-margin-right="0"
     fit-margin-bottom="0"
     showguides="true" /><style
     type="text/css"
     id="style3404">
	.st0{fill:none;stroke:#000000;stroke-width:4;stroke-miterlimit:10;}
	.st1{fill:none;stroke:#000000;stroke-width:4;stroke-linecap:round;stroke-linejoin:bevel;stroke-miterlimit:10;}
	.st2{fill:none;stroke:#000000;stroke-width:4;stroke-linecap:round;stroke-miterlimit:10;}
</style><style
     id="style3359"
     type="text/css">
	.st0{fill:none;stroke:#000000;stroke-width:4;stroke-miterlimit:10;}
	.st1{fill:none;stroke:#000000;stroke-width:4;stroke-linecap:round;stroke-linejoin:bevel;stroke-miterlimit:10;}
	.st2{fill:none;stroke:#000000;stroke-width:4;stroke-linecap:round;stroke-miterlimit:10;}
</style><ellipse
     style="fill:#ffffff;fill-opacity:1;fill-rule:nonzero;stroke:#00804c;stroke-width:12.86403751;stroke-miterlimit:4;stroke-dasharray:none;stroke-opacity:0.54901963;"
     id="path4369"
     cx="40.864014"
     cy="12.932102"
     rx="6.6173139"
     ry="5.2482152" /><path
     style="fill:#ffffff;fill-opacity:1;stroke:none;stroke-width:1px;stroke-linecap:butt;stroke-linejoin:miter;stroke-opacity:1"
     d="M 40.032626,19.700064 C 39.917983,19.66298 39.339544,19.39786 38.747212,19.110931 l -1.076971,-0.521697 0,-3.525707 0,-3.525705 0.610261,-0.239742 c 0.601336,-0.236245 0.630586,-0.279917 1.999712,-2.9856425 1.153922,-2.2804238 1.377529,-2.825042 1.319121,-3.2128408 -0.03868,-0.2568278 -0.02642,-0.9490632 0.02726,-1.538294 0.07935,-0.8710096 0.150563,-1.1004948 0.380891,-1.2273005 0.663113,-0.3650619 1.49092,0.7882629 1.854991,2.5844476 0.189916,0.9369701 0.185473,1.0554171 -0.06734,1.7953677 -0.214357,0.6273827 -0.240474,0.8813626 -0.125515,1.2205854 0.26169,0.7722234 0.614577,0.8485281 3.92425,0.8485281 l 2.989241,0 0.211246,0.7317501 c 0.210845,0.7303529 0.20967,0.7384309 -0.618776,4.2527649 -1.160112,4.921277 -1.321543,5.47842 -1.671943,5.770297 -0.274502,0.22865 -0.676491,0.251282 -4.28275,0.241052 -2.188901,-0.0061 -4.073614,-0.04166 -4.188261,-0.07874 z"
     id="path4363"
     inkscape:connector-curvature="0" /><path
     class="st0"
     d="m 31.787912,10.261838 c 0,-0.2749233 0.128853,-0.9164123 0.386589,-0.9164123 l 4.681842,0 c 0.257704,0 0.515441,0.641489 0.515441,0.9164123 l 0,9.759731 c 0,0.274924 -0.214775,0.320741 -0.515441,0.320741 l -4.681842,0 c -0.257736,0 -0.386589,-0.04579 -0.386589,-0.320741 l 0,-9.759731 z"
     id="path3406"
     inkscape:connector-curvature="0"
     style="fill:none;stroke:#323232;stroke-width:1.77453399;stroke-miterlimit:10;stroke-opacity:1" /><path
     class="st1"
     d="m 44.244209,8.4290215 5.154319,0 c 0.644264,0 1.202667,1.8328165 1.073814,2.4742965 0,0 -1.503363,6.506489 -1.889921,7.514543 -0.386589,1.008045 -1.589253,1.008045 -1.88992,1.008045 l -0.730184,0"
     id="path3408"
     inkscape:connector-curvature="0"
     style="fill:none;stroke:#323232;stroke-width:1.77453399;stroke-linecap:round;stroke-linejoin:bevel;stroke-miterlimit:10;stroke-opacity:1" /><path
     class="st2"
     d="m 37.629488,10.949135 0.987922,-0.412382 2.061702,-3.9405483 c 0,0 -0.08588,-2.0619153 0.128886,-2.7033953 0.214742,-0.641489 2.104663,-1.7870006 3.221437,0.7789463 1.116774,2.565938 0.171814,3.7114408 0.171814,3.7114408"
     id="path3410"
     inkscape:connector-curvature="0"
     style="fill:none;stroke:#323232;stroke-width:1.77453399;stroke-linecap:round;stroke-miterlimit:10;stroke-opacity:1" /><path
     class="st2"
     d="m 46.821355,19.425906 -5.755653,0 -0.472481,0 c -0.987922,0 -2.963733,-1.237154 -2.963733,-1.237154"
     id="path3412"
     inkscape:connector-curvature="0"
     style="fill:none;stroke:#323232;stroke-width:1.77453399;stroke-linecap:round;stroke-miterlimit:10;stroke-opacity:1" /><g
     id="g3414"
     transform="matrix(0.52111797,0,0,0.52111797,19.125231,-1009.4681)" /><g
     id="g3416"
     transform="matrix(0.52111797,0,0,0.52111797,19.125231,-1009.4681)" /><g
     id="g3418"
     transform="matrix(0.52111797,0,0,0.52111797,19.125231,-1009.4681)" /><g
     id="g3420"
     transform="matrix(0.52111797,0,0,0.52111797,19.125231,-1009.4681)" /><g
     id="g3422"
     transform="matrix(0.52111797,0,0,0.52111797,19.125231,-1009.4681)" /><g
     id="g3424"
     transform="matrix(0.52111797,0,0,0.52111797,19.125231,-1009.4681)" /><path
     style="fill:#803300"
     d="m 36.535337,14.829348 c 0,-2.534464 0.01048,-3.558778 0.02316,-2.276222 0.01301,1.282556 0.01301,3.356205 -3.2e-5,4.608105 -0.01301,1.251953 -0.02316,0.202575 -0.02316,-2.331883 z"
     id="path3448"
     inkscape:connector-curvature="0" /><g
     id="g3388"
     transform="matrix(0.42952675,0,0,0.45820347,-6.598961,-8.9931547)"><path
       id="path3361"
       d="m 23.4,42.1 c 0,-0.6 0.3,-2 0.9,-2 l 10.9,0 c 0.6,0 1.2,1.4 1.2,2 l 0,21.3 c 0,0.6 -0.5,0.7 -1.2,0.7 l -10.9,0 c -0.6,0 -0.9,-0.1 -0.9,-0.7 l 0,-21.3 z"
       class="st0"
       inkscape:connector-curvature="0"
       style="fill:none;stroke:#646464;stroke-width:4.00105095;stroke-miterlimit:10;stroke-dasharray:none;stroke-opacity:1" /><path
       id="path3363"
       d="m 52.4,38.1 12,0 c 1.5,0 2.8,4 2.5,5.4 0,0 -3.5,14.2 -4.4,16.4 -0.9,2.2 -3.7,2.2 -4.4,2.2 l -1.7,0"
       class="st1"
       inkscape:connector-curvature="0"
       style="fill:none;stroke:#646464;stroke-width:4.00105095;stroke-linecap:round;stroke-linejoin:bevel;stroke-miterlimit:10;stroke-dasharray:none;stroke-opacity:1" /><path
       id="path3365"
       d="m 37,43.6 2.3,-0.9 4.8,-8.6 c 0,0 -0.2,-4.5 0.3,-5.9 0.5,-1.4 4.9,-3.9 7.5,1.7 2.6,5.6 0.4,8.1 0.4,8.1"
       class="st2"
       inkscape:connector-curvature="0"
       style="fill:none;stroke:#646464;stroke-width:4.00105095;stroke-linecap:round;stroke-miterlimit:10;stroke-dasharray:none;stroke-opacity:1" /><path
       id="path3367"
       d="m 58.4,62.1 -13.4,0 -1.1,0 C 41.6,62.1 37,59.4 37,59.4"
       class="st2"
       inkscape:connector-curvature="0"
       style="fill:none;stroke:#646464;stroke-width:4.00105095;stroke-linecap:round;stroke-miterlimit:10;stroke-dasharray:none;stroke-opacity:1" /><g
       id="g3369" /><g
       id="g3371" /><g
       id="g3373" /><g
       id="g3375" /><g
       id="g3377" /><g
       id="g3379" /></g><path
     style="fill:#ffffff;fill-opacity:1;stroke:none;stroke-width:1px;stroke-linecap:butt;stroke-linejoin:miter;stroke-opacity:1"
     d="m 32.717389,14.835598 0,-4.599079 1.8868,0 1.886801,0 0,4.599079 0,4.599079 -1.886801,0 -1.8868,0 0,-4.599079 z"
     id="path4367"
     inkscape:connector-curvature="0" /></svg>