<?xml version="1.0" encoding="UTF-8" standalone="no"?>
<svg
   xmlns:dc="http://purl.org/dc/elements/1.1/"
   xmlns:cc="http://creativecommons.org/ns#"
   xmlns:rdf="http://www.w3.org/1999/02/22-rdf-syntax-ns#"
   xmlns:svg="http://www.w3.org/2000/svg"
   xmlns="http://www.w3.org/2000/svg"
   xmlns:sodipodi="http://sodipodi.sourceforge.net/DTD/sodipodi-0.dtd"
   xmlns:inkscape="http://www.inkscape.org/namespaces/inkscape"
   id="Livello_1"
   version="1.1"
   viewBox="0 0 60 29"
   xml:space="preserve"
   inkscape:version="0.91 r13725"
   sodipodi:docname="likeonasset.svg"
   width="60"
   height="29"><metadata
     id="metadata3430"><rdf:RDF><cc:Work
         rdf:about=""><dc:format>image/svg+xml</dc:format><dc:type
           rdf:resource="http://purl.org/dc/dcmitype/StillImage" /><dc:title></dc:title></cc:Work></rdf:RDF></metadata><defs
     id="defs3428"><inkscape:perspective
       sodipodi:type="inkscape:persp3d"
       inkscape:vp_x="0 : 0.5 : 1"
       inkscape:vp_y="0 : 10 : 0"
       inkscape:vp_z="0.99999997 : 0.5 : 1"
       inkscape:persp3d-origin="0.5 : 0.33333333 : 1"
       id="perspective3474" /></defs><sodipodi:namedview
     pagecolor="#ffffff"
     bordercolor="#666666"
     borderopacity="1"
     objecttolerance="10"
     gridtolerance="10"
     guidetolerance="10"
     inkscape:pageopacity="0"
     inkscape:pageshadow="2"
     inkscape:window-width="1865"
     inkscape:window-height="1057"
     id="namedview3426"
     showgrid="false"
     inkscape:snap-text-baseline="true"
     inkscape:zoom="7.4529055"
     inkscape:cx="11.688987"
     inkscape:cy="-4.2334499"
     inkscape:window-x="55"
     inkscape:window-y="0"
     inkscape:window-maximized="1"
     inkscape:current-layer="Livello_1"
     units="px"
     fit-margin-top="-2.4"
     fit-margin-left="0"
     fit-margin-right="0"
     fit-margin-bottom="0" /><style
     type="text/css"
     id="style3404">
	.st0{fill:none;stroke:#000000;stroke-width:4;stroke-miterlimit:10;}
	.st1{fill:none;stroke:#000000;stroke-width:4;stroke-linecap:round;stroke-linejoin:bevel;stroke-miterlimit:10;}
	.st2{fill:none;stroke:#000000;stroke-width:4;stroke-linecap:round;stroke-miterlimit:10;}
</style><style
     id="style3359"
     type="text/css">
	.st0{fill:none;stroke:#000000;stroke-width:4;stroke-miterlimit:10;}
	.st1{fill:none;stroke:#000000;stroke-width:4;stroke-linecap:round;stroke-linejoin:bevel;stroke-miterlimit:10;}
	.st2{fill:none;stroke:#000000;stroke-width:4;stroke-linecap:round;stroke-miterlimit:10;}
</style><ellipse
     style="fill:#ffffff;fill-opacity:1;fill-rule:nonzero;stroke:#008080;stroke-width:14.86722374;stroke-miterlimit:4;stroke-dasharray:none;stroke-opacity:1"
     id="path4365"
     cx="38.604633"
     cy="25.384008"
     rx="7.6677341"
     ry="6.427712"
     transform="matrix(0.96660024,-0.25628884,0.26901222,0.96313676,0,0)" /><path
     style="fill:#ffffff;fill-opacity:1;stroke:none;stroke-width:1px;stroke-linecap:butt;stroke-linejoin:miter;stroke-opacity:1"
     d="m 43.466249,22.023124 c -0.130442,-0.0422 -0.788593,-0.34385 -1.462553,-0.67032 l -1.225382,-0.59359 0,-4.01157 0,-4.01157 0.694358,-0.27278 c 0.684203,-0.2688 0.717484,-0.31849 2.275285,-3.397081 1.312938,-2.59468 1.56736,-3.21435 1.500903,-3.65559 -0.04401,-0.29222 -0.03006,-1.07985 0.03101,-1.75028 0.09028,-0.9910403 0.171312,-1.2521503 0.43338,-1.3964303 0.754495,-0.41537 1.696378,0.8968903 2.11062,2.9406003 0.216088,1.06609 0.211033,1.20086 -0.07662,2.04278 -0.243896,0.71384 -0.273612,1.00282 -0.142812,1.38879 0.297753,0.87864 0.69927,0.96546 4.465036,0.96546 l 3.401176,0 0.240357,0.83259 c 0.239901,0.831 0.238565,0.84019 -0.704046,4.838821 -1.319983,5.59946 -1.50366,6.23338 -1.902347,6.56548 -0.312331,0.26016 -0.769716,0.28591 -4.872939,0.27427 -2.490545,-0.007 -4.634984,-0.0474 -4.76543,-0.0896 z"
     id="path4363"
     inkscape:connector-curvature="0" /><path
     class="st0"
     d="m 34.085364,11.284253 c 0,-0.31281 0.146609,-1.0427 0.439863,-1.0427 l 5.327027,0 c 0.293218,0 0.586472,0.72989 0.586472,1.0427 l 0,11.104681 c 0,0.31281 -0.244372,0.36494 -0.586472,0.36494 l -5.327027,0 c -0.293254,0 -0.439863,-0.0521 -0.439863,-0.36494 l 0,-11.104681 z"
     id="path3406"
     inkscape:connector-curvature="0"
     style="fill:none;stroke:#000000;stroke-width:2.01907539;stroke-miterlimit:10" /><path
     class="st1"
     d="m 48.258214,9.198863 5.864616,0 c 0.733046,0 1.3684,2.08539 1.221791,2.81527 0,0 -1.710536,7.403121 -2.150363,8.550091 -0.439863,1.14696 -1.808263,1.14696 -2.150363,1.14696 l -0.830808,0"
     id="path3408"
     inkscape:connector-curvature="0"
     style="fill:none;stroke:#000000;stroke-width:2.01907539;stroke-linecap:round;stroke-linejoin:bevel;stroke-miterlimit:10" /><path
     class="st2"
     d="m 40.731944,12.066264 1.124063,-0.469211 2.345818,-4.48358 c 0,0 -0.09772,-2.34606 0.146646,-3.07594 0.244336,-0.72989 2.394699,-2.0332603 3.665371,0.88629 1.270672,2.91954 0.195491,4.2229 0.195491,4.2229"
     id="path3410"
     inkscape:connector-curvature="0"
     style="fill:none;stroke:#000000;stroke-width:2.01907539;stroke-linecap:round;stroke-miterlimit:10" /><path
     class="st2"
     d="m 51.190505,21.711184 -6.548816,0 -0.537592,0 c -1.124063,0 -3.372153,-1.40764 -3.372153,-1.40764"
     id="path3412"
     inkscape:connector-curvature="0"
     style="fill:none;stroke:#000000;stroke-width:2.01907539;stroke-linecap:round;stroke-miterlimit:10" /><g
     id="g3414"
     transform="translate(37.073749,-1956.7376)" /><g
     id="g3416"
     transform="translate(37.073749,-1956.7376)" /><g
     id="g3418"
     transform="translate(37.073749,-1956.7376)" /><g
     id="g3420"
     transform="translate(37.073749,-1956.7376)" /><g
     id="g3422"
     transform="translate(37.073749,-1956.7376)" /><g
     id="g3424"
     transform="translate(37.073749,-1956.7376)" /><path
     style="fill:#803300"
     d="m 39.487013,16.481194 c 0,-2.88373 0.01192,-4.0492 0.02635,-2.5899 0.0148,1.4593 0.0148,3.81871 -3.6e-5,5.24313 -0.0148,1.42448 -0.02636,0.23049 -0.02636,-2.65323 z"
     id="path3448"
     inkscape:connector-curvature="0" /><g
     id="g3388"
     transform="matrix(0.48871815,0,0,0.52134668,-9.7441189,-10.624195)"><path
       id="path3361"
       d="m 23.4,42.1 c 0,-0.6 0.3,-2 0.9,-2 l 10.9,0 c 0.6,0 1.2,1.4 1.2,2 l 0,21.3 c 0,0.6 -0.5,0.7 -1.2,0.7 l -10.9,0 c -0.6,0 -0.9,-0.1 -0.9,-0.7 l 0,-21.3 z"
       class="st0"
       inkscape:connector-curvature="0"
       style="fill:none;stroke:#000000;stroke-width:4;stroke-miterlimit:10" /><path
       id="path3363"
       d="m 52.4,38.1 12,0 c 1.5,0 2.8,4 2.5,5.4 0,0 -3.5,14.2 -4.4,16.4 -0.9,2.2 -3.7,2.2 -4.4,2.2 l -1.7,0"
       class="st1"
       inkscape:connector-curvature="0"
       style="fill:none;stroke:#000000;stroke-width:4;stroke-linecap:round;stroke-linejoin:bevel;stroke-miterlimit:10" /><path
       id="path3365"
       d="m 37,43.6 2.3,-0.9 4.8,-8.6 c 0,0 -0.2,-4.5 0.3,-5.9 0.5,-1.4 4.9,-3.9 7.5,1.7 2.6,5.6 0.4,8.1 0.4,8.1"
       class="st2"
       inkscape:connector-curvature="0"
       style="fill:none;stroke:#000000;stroke-width:4;stroke-linecap:round;stroke-miterlimit:10" /><path
       id="path3367"
       d="m 58.4,62.1 -13.4,0 -1.1,0 C 41.6,62.1 37,59.4 37,59.4"
       class="st2"
       inkscape:connector-curvature="0"
       style="fill:none;stroke:#000000;stroke-width:4;stroke-linecap:round;stroke-miterlimit:10" /><g
       id="g3369" /><g
       id="g3371" /><g
       id="g3373" /><g
       id="g3375" /><g
       id="g3377" /><g
       id="g3379" /></g><path
     style="fill:#ffffff;fill-opacity:1;stroke:none;stroke-width:1px;stroke-linecap:butt;stroke-linejoin:miter;stroke-opacity:1"
     d="m 35.142927,16.488304 0,-5.23286 2.146814,0 2.146813,0 0,5.23286 0,5.23286 -2.146813,0 -2.146814,0 0,-5.23286 z"
     id="path4367"
     inkscape:connector-curvature="0" /></svg>