<?xml version="1.0" encoding="utf-8"?><!DOCTYPE svg PUBLIC "-//W3C//DTD SVG 1.1//EN" "http://www.w3.org/Graphics/SVG/1.1/DTD/svg11.dtd"><svg version="1.1" xmlns="http://www.w3.org/2000/svg" xmlns:xlink="http://www.w3.org/1999/xlink" x="0px" y="0px" viewBox="0 0 86.381 125" enable-background="new 0 0 86.381 100" xml:space="preserve"><path fill="#010101" d="M85.299,20.57c-0.684-0.532-1.556-0.654-2.326-0.319L45.799,36.348c-1.616,0.703-3.639,1.042-5.717,1.042
	c-2.897,0.008-5.895-0.667-7.984-1.586c-0.748-0.319-1.372-0.678-1.813-0.998c0.162-0.079,0.346-0.162,0.562-0.246l33.818-14.637
	l5.047,2.159v-6.308c0-0.939-0.398-1.829-1.082-2.354c-0.685-0.532-1.56-0.654-2.322-0.319L29.1,29.196
	c-1.146,0.466-2.131,1.031-2.967,1.86c-0.819,0.801-1.527,2.124-1.516,3.593c0,0.04,0.011,0.105,0.011,0.105v56.681
	c0,0.022-0.007,0.049-0.007,0.075c0,0.019,0.007,0.026,0.007,0.045v0.061h0.008c0.083,2.007,1.078,3.288,2.033,4.134
	c3.004,2.648,8.046,4.13,13.407,4.25c2.54,0,5.12-0.402,7.502-1.409l37.182-16.114c0.984-0.402,1.623-1.473,1.623-2.649V22.928
	C86.381,21.99,85.976,21.102,85.299,20.57z"/><path fill="#010101" d="M61.722,9.794c-0.067-0.849-0.413-1.65-1.045-2.138c-0.68-0.532-1.556-0.654-2.33-0.319L21.176,23.433
	c-1.616,0.699-3.643,1.043-5.718,1.043c-2.897,0.004-5.896-0.671-7.985-1.589c-0.742-0.316-1.37-0.675-1.812-0.994
	c0.162-0.081,0.35-0.162,0.562-0.246L40.037,7.009l5.04,2.159V2.86c0-0.939-0.408-1.828-1.092-2.354
	c-0.678-0.532-1.567-0.656-2.332-0.319L4.479,16.282c-1.146,0.462-2.127,1.028-2.963,1.86C0.693,18.943-0.011,20.266,0,21.737
	c0,0.041,0.011,0.103,0.011,0.103v56.683c0,0.022-0.004,0.053-0.004,0.075c0,0.015,0.004,0.022,0.004,0.082v0.075h0.007
	c0.081,2.007,1.079,3.288,2.033,4.123c3.004,2.649,8.046,4.085,13.41,4.22c1.447,0,2.901-0.188,4.333-0.458V34.769
	c-0.038-2.694,1.039-5.28,2.933-7.142c1.227-1.212,2.724-2.17,4.579-2.909L61.722,9.794z"/>
</svg>
