<svg xmlns="http://www.w3.org/2000/svg" xmlns:xlink="http://www.w3.org/1999/xlink" version="1.1" x="0px" y="0px" viewBox="0 0 24 30" style="enable-background:new 0 0 24 24;" xml:space="preserve"><path d="M19.964,6.266h-8.124c-0.268,0-0.668-0.303-0.813-0.738c-0.219-0.658-0.842-1.174-1.417-1.174H4.036  c-0.878,0-1.593,0.715-1.593,1.593v12.106c0,0.878,0.715,1.593,1.593,1.593h15.929c0.878,0,1.593-0.715,1.593-1.593V7.859  C21.557,6.98,20.843,6.266,19.964,6.266z M20.92,18.053c0,0.527-0.429,0.956-0.956,0.956H4.036c-0.527,0-0.956-0.429-0.956-0.956  V9.77h6.372c0.439,0,1.003-0.234,1.313-0.544l0.373-0.373C11.325,8.666,11.736,8.496,12,8.496h8.92V18.053z M12,7.859  c-0.439,0-1.003,0.234-1.313,0.544l-0.373,0.373c-0.187,0.187-0.598,0.357-0.862,0.357H3.08V5.947c0-0.527,0.429-0.956,0.956-0.956  h5.575c0.268,0,0.668,0.303,0.813,0.738c0.219,0.658,0.842,1.174,1.417,1.174h8.124c0.527,0,0.956,0.429,0.956,0.956H12z"/>
</svg>
