<?xml version="1.0" ?><svg id="Livello_1" style="enable-background:new 0 0 100 100;" version="1.1" viewBox="0 0 100 100" xml:space="preserve" xmlns="http://www.w3.org/2000/svg" xmlns:xlink="http://www.w3.org/1999/xlink"><style type="text/css">
	.st0{fill:none;stroke:#000000;stroke-width:4;stroke-miterlimit:10;}
	.st1{fill:none;stroke:#000000;stroke-width:4;stroke-linecap:round;stroke-linejoin:bevel;stroke-miterlimit:10;}
	.st2{fill:none;stroke:#000000;stroke-width:4;stroke-linecap:round;stroke-miterlimit:10;}
</style><path class="st0" d="M23.4,42.1c0-0.6,0.3-2,0.9-2h10.9c0.6,0,1.2,1.4,1.2,2v21.3c0,0.6-0.5,0.7-1.2,0.7H24.3  c-0.6,0-0.9-0.1-0.9-0.7V42.1z"/><path class="st1" d="M52.4,38.1h12c1.5,0,2.8,4,2.5,5.4c0,0-3.5,14.2-4.4,16.4c-0.9,2.2-3.7,2.2-4.4,2.2h-1.7"/><path class="st2" d="M37,43.6l2.3-0.9l4.8-8.6c0,0-0.2-4.5,0.3-5.9c0.5-1.4,4.9-3.9,7.5,1.7c2.6,5.6,0.4,8.1,0.4,8.1"/><path class="st2" d="M58.4,62.1H45h-1.1c-2.3,0-6.9-2.7-6.9-2.7"/><g/><g/><g/><g/><g/><g/></svg>